<svg xmlns="http://www.w3.org/2000/svg" xmlns:xlink="http://www.w3.org/1999/xlink" width="500" zoomAndPan="magnify" viewBox="0 0 375 187.499995" height="250" preserveAspectRatio="xMidYMid meet" version="1.0"><defs><filter x="0%" y="0%" width="100%" height="100%" id="id1"><feColorMatrix values="0 0 0 0 1 0 0 0 0 1 0 0 0 0 1 0 0 0 1 0" color-interpolation-filters="sRGB"/></filter><g/><mask id="id2"><g filter="url(#id1)"><rect x="-37.5" width="450" fill="#000000" y="-18.749999" height="224.999994" fill-opacity="0.2784"/></g></mask><clipPath id="id3"><path d="M 0.507812 0.773438 L 150.859375 0.773438 L 150.859375 151.121094 L 0.507812 151.121094 Z M 0.507812 0.773438 " clip-rule="nonzero"/></clipPath><clipPath id="id4"><rect x="0" width="152" y="0" height="152"/></clipPath><mask id="id5"><g filter="url(#id1)"><rect x="-37.5" width="450" fill="#000000" y="-18.749999" height="224.999994" fill-opacity="0.2784"/></g></mask><clipPath id="id6"><path d="M 0.507812 0.773438 L 150.859375 0.773438 L 150.859375 151.121094 L 0.507812 151.121094 Z M 0.507812 0.773438 " clip-rule="nonzero"/></clipPath><clipPath id="id7"><rect x="0" width="152" y="0" height="152"/></clipPath></defs><g mask="url(#id2)"><g transform="matrix(1, 0, 0, 1, 112, 17)"><g clip-path="url(#id4)"><g clip-path="url(#id3)"><path fill="#ffffff" d="M 150.800781 70.164062 C 150.804688 70.109375 150.796875 70.058594 150.777344 70.007812 C 150.777344 70.003906 150.777344 70.003906 150.777344 70 L 135.792969 30.792969 C 135.792969 30.785156 135.785156 30.785156 135.785156 30.777344 C 135.757812 30.71875 135.726562 30.664062 135.671875 30.625 L 102.722656 4.507812 C 102.671875 4.464844 102.609375 4.433594 102.539062 4.421875 C 102.535156 4.421875 102.53125 4.421875 102.523438 4.421875 L 75.628906 0.777344 C 75.578125 0.769531 75.519531 0.773438 75.46875 0.789062 L 62.652344 4.417969 L 62.285156 4.417969 C 62.214844 4.417969 62.144531 4.4375 62.082031 4.472656 L 61.757812 4.671875 L 30.207031 13.605469 C 30.195312 13.609375 30.1875 13.617188 30.179688 13.621094 C 30.136719 13.636719 30.097656 13.660156 30.0625 13.6875 C 30.050781 13.699219 30.035156 13.710938 30.023438 13.722656 C 30.015625 13.730469 30.007812 13.734375 30 13.742188 L 2.371094 49.484375 C 2.363281 49.496094 2.363281 49.507812 2.355469 49.519531 C 2.34375 49.535156 2.332031 49.550781 2.324219 49.566406 C 2.320312 49.578125 2.320312 49.589844 2.316406 49.601562 C 2.308594 49.621094 2.304688 49.644531 2.300781 49.664062 C 2.296875 49.679688 2.292969 49.6875 2.292969 49.703125 L 0.550781 81.136719 C 0.550781 81.164062 0.550781 81.191406 0.554688 81.21875 L 3.101562 97.117188 C 3.105469 97.136719 3.117188 97.152344 3.125 97.175781 C 3.128906 97.1875 3.125 97.203125 3.132812 97.214844 C 3.132812 97.21875 3.136719 97.21875 3.136719 97.222656 C 3.140625 97.226562 3.140625 97.234375 3.140625 97.238281 L 16.003906 121.652344 C 16.027344 121.695312 16.058594 121.730469 16.09375 121.761719 L 31.179688 135.054688 C 31.203125 135.082031 31.230469 135.105469 31.261719 135.125 L 48.707031 146.84375 C 48.753906 146.875 48.808594 146.894531 48.867188 146.90625 L 76.238281 151.144531 L 76.242188 151.144531 C 76.246094 151.144531 76.246094 151.148438 76.246094 151.148438 C 76.269531 151.148438 76.289062 151.152344 76.308594 151.152344 C 76.335938 151.152344 76.363281 151.148438 76.390625 151.144531 C 76.390625 151.144531 76.390625 151.144531 76.390625 151.140625 C 76.390625 151.140625 76.394531 151.140625 76.394531 151.140625 C 76.398438 151.140625 76.398438 151.140625 76.402344 151.140625 C 76.402344 151.140625 76.40625 151.140625 76.40625 151.140625 L 76.40625 151.136719 C 76.410156 151.136719 76.410156 151.136719 76.410156 151.136719 C 76.410156 151.136719 76.410156 151.136719 76.414062 151.136719 C 76.414062 151.136719 76.414062 151.136719 76.417969 151.136719 L 121.144531 138.109375 C 121.160156 138.105469 121.167969 138.089844 121.183594 138.082031 C 121.226562 138.0625 121.261719 138.039062 121.292969 138.003906 C 121.308594 137.992188 121.332031 137.988281 121.34375 137.96875 L 148.554688 102.210938 C 148.597656 102.152344 148.617188 102.089844 148.625 102.023438 C 148.628906 102.015625 148.632812 102.007812 148.636719 102 Z M 147.871094 101.664062 L 136.101562 104.628906 L 149.859375 72.429688 Z M 100.117188 97.101562 L 56.753906 81.894531 L 89.457031 58.425781 Z M 89.460938 57.160156 L 56.847656 35.902344 L 99.25 23.8125 Z M 88.992188 57.792969 L 56.304688 81.25 L 56.304688 36.488281 Z M 55.515625 81.386719 L 18.417969 63.242188 L 55.515625 36.53125 Z M 63.550781 124.886719 L 28.1875 105.140625 L 55.644531 82.742188 Z M 56.421875 82.613281 L 99.878906 97.851562 L 64.363281 124.941406 Z M 100.355469 98.476562 L 102.644531 130.871094 L 65.074219 125.386719 Z M 100.859375 96.828125 L 90.222656 58.226562 L 126.402344 61.828125 Z M 126.90625 62.472656 L 134.929688 104.691406 L 101.371094 97.464844 Z M 135.574219 103.859375 L 127.640625 62.117188 L 149.882812 70.363281 Z M 126.960938 60.601562 L 100.738281 23.839844 L 134.9375 31.230469 Z M 126.300781 61.03125 L 90.199219 57.433594 L 99.980469 24.128906 Z M 56.425781 35.207031 L 62.570312 5.386719 L 98.742188 23.140625 Z M 55.613281 35.25 L 27.867188 26.003906 L 61.71875 5.609375 Z M 55.058594 35.890625 L 18.300781 62.359375 L 27.214844 26.613281 Z M 17.433594 62.574219 L 3.257812 49.714844 L 26.21875 27.355469 Z M 26.585938 25.902344 L 6.414062 45.542969 L 29.394531 15.816406 Z M 17.1875 63.410156 L 3.851562 95.171875 L 3.09375 50.625 Z M 17.550781 64.578125 L 26.945312 104.601562 L 4.015625 96.816406 Z M 18.230469 64.023438 L 55.1875 82.101562 L 27.730469 104.5 Z M 63.070312 125.519531 L 31.808594 134.296875 L 27.984375 105.929688 Z M 63.882812 126.109375 L 75.53125 150.066406 L 32.769531 134.839844 Z M 76.457031 150.164062 L 64.773438 126.136719 L 102.058594 131.578125 Z M 103.414062 130.550781 L 101.128906 98.214844 L 134.542969 105.414062 Z M 134.410156 106.527344 L 120.820312 137.238281 L 103.867188 131.195312 Z M 135.710938 105.535156 L 147.25 102.628906 L 122.75 134.828125 Z M 127.597656 61.261719 L 135.492188 32.199219 L 149.730469 69.46875 Z M 102.765625 5.542969 L 133.859375 30.191406 L 100.269531 22.933594 Z M 75.605469 1.566406 L 96.65625 4.417969 L 65.53125 4.417969 Z M 102.019531 5.203125 L 99.515625 22.648438 L 63.976562 5.203125 Z M 27.582031 25.257812 L 30.632812 14.300781 L 59.199219 6.210938 Z M 1.339844 81.136719 L 2.476562 60.613281 L 3 91.515625 Z M 16.667969 121.222656 L 6.230469 101.410156 L 28.941406 132.039062 Z M 4.558594 97.832031 L 27.132812 105.496094 L 30.882812 133.332031 Z M 34.285156 136.210938 L 72.257812 149.734375 L 49.074219 146.140625 Z M 103.136719 131.769531 L 119.757812 137.695312 L 78.367188 149.75 Z M 103.136719 131.769531 " fill-opacity="1" fill-rule="nonzero"/></g></g></g></g><g mask="url(#id5)"><g transform="matrix(1, 0, 0, 1, 112, 17)"><g clip-path="url(#id7)"><g clip-path="url(#id6)"><path fill="#ffffff" d="M 150.800781 70.164062 C 150.804688 70.109375 150.796875 70.058594 150.777344 70.007812 C 150.777344 70.003906 150.777344 70.003906 150.777344 70 L 135.792969 30.792969 C 135.792969 30.785156 135.785156 30.785156 135.785156 30.777344 C 135.757812 30.71875 135.726562 30.664062 135.671875 30.625 L 102.722656 4.507812 C 102.671875 4.464844 102.609375 4.433594 102.539062 4.421875 C 102.535156 4.421875 102.53125 4.421875 102.523438 4.421875 L 75.628906 0.777344 C 75.578125 0.769531 75.519531 0.773438 75.46875 0.789062 L 62.652344 4.417969 L 62.285156 4.417969 C 62.214844 4.417969 62.144531 4.4375 62.082031 4.472656 L 61.757812 4.671875 L 30.207031 13.605469 C 30.195312 13.609375 30.1875 13.617188 30.179688 13.621094 C 30.136719 13.636719 30.097656 13.660156 30.0625 13.6875 C 30.050781 13.699219 30.035156 13.710938 30.023438 13.722656 C 30.015625 13.730469 30.007812 13.734375 30 13.742188 L 2.371094 49.484375 C 2.363281 49.496094 2.363281 49.507812 2.355469 49.519531 C 2.34375 49.535156 2.332031 49.550781 2.324219 49.566406 C 2.320312 49.578125 2.320312 49.589844 2.316406 49.601562 C 2.308594 49.621094 2.304688 49.644531 2.300781 49.664062 C 2.296875 49.679688 2.292969 49.6875 2.292969 49.703125 L 0.550781 81.136719 C 0.550781 81.164062 0.550781 81.191406 0.554688 81.21875 L 3.101562 97.117188 C 3.105469 97.136719 3.117188 97.152344 3.125 97.175781 C 3.128906 97.1875 3.125 97.203125 3.132812 97.214844 C 3.132812 97.21875 3.136719 97.21875 3.136719 97.222656 C 3.140625 97.226562 3.140625 97.234375 3.140625 97.238281 L 16.003906 121.652344 C 16.027344 121.695312 16.058594 121.730469 16.09375 121.761719 L 31.179688 135.054688 C 31.203125 135.082031 31.230469 135.105469 31.261719 135.125 L 48.707031 146.84375 C 48.753906 146.875 48.808594 146.894531 48.867188 146.90625 L 76.238281 151.144531 L 76.242188 151.144531 C 76.246094 151.144531 76.246094 151.148438 76.246094 151.148438 C 76.269531 151.148438 76.289062 151.152344 76.308594 151.152344 C 76.335938 151.152344 76.363281 151.148438 76.390625 151.144531 C 76.390625 151.144531 76.390625 151.144531 76.390625 151.140625 C 76.390625 151.140625 76.394531 151.140625 76.394531 151.140625 C 76.398438 151.140625 76.398438 151.140625 76.402344 151.140625 C 76.402344 151.140625 76.40625 151.140625 76.40625 151.140625 L 76.40625 151.136719 C 76.410156 151.136719 76.410156 151.136719 76.410156 151.136719 C 76.410156 151.136719 76.410156 151.136719 76.414062 151.136719 C 76.414062 151.136719 76.414062 151.136719 76.417969 151.136719 L 121.144531 138.109375 C 121.160156 138.105469 121.167969 138.089844 121.183594 138.082031 C 121.226562 138.0625 121.261719 138.039062 121.292969 138.003906 C 121.308594 137.992188 121.332031 137.988281 121.34375 137.96875 L 148.554688 102.210938 C 148.597656 102.152344 148.617188 102.089844 148.625 102.023438 C 148.628906 102.015625 148.632812 102.007812 148.636719 102 Z M 147.871094 101.664062 L 136.101562 104.628906 L 149.859375 72.429688 Z M 100.117188 97.101562 L 56.753906 81.894531 L 89.457031 58.425781 Z M 89.460938 57.160156 L 56.847656 35.902344 L 99.25 23.8125 Z M 88.992188 57.792969 L 56.304688 81.25 L 56.304688 36.488281 Z M 55.515625 81.386719 L 18.417969 63.242188 L 55.515625 36.53125 Z M 63.550781 124.886719 L 28.1875 105.140625 L 55.644531 82.742188 Z M 56.421875 82.613281 L 99.878906 97.851562 L 64.363281 124.941406 Z M 100.355469 98.476562 L 102.644531 130.871094 L 65.074219 125.386719 Z M 100.859375 96.828125 L 90.222656 58.226562 L 126.402344 61.828125 Z M 126.90625 62.472656 L 134.929688 104.691406 L 101.371094 97.464844 Z M 135.574219 103.859375 L 127.640625 62.117188 L 149.882812 70.363281 Z M 126.960938 60.601562 L 100.738281 23.839844 L 134.9375 31.230469 Z M 126.300781 61.03125 L 90.199219 57.433594 L 99.980469 24.128906 Z M 56.425781 35.207031 L 62.570312 5.386719 L 98.742188 23.140625 Z M 55.613281 35.25 L 27.867188 26.003906 L 61.71875 5.609375 Z M 55.058594 35.890625 L 18.300781 62.359375 L 27.214844 26.613281 Z M 17.433594 62.574219 L 3.257812 49.714844 L 26.21875 27.355469 Z M 26.585938 25.902344 L 6.414062 45.542969 L 29.394531 15.816406 Z M 17.1875 63.410156 L 3.851562 95.171875 L 3.09375 50.625 Z M 17.550781 64.578125 L 26.945312 104.601562 L 4.015625 96.816406 Z M 18.230469 64.023438 L 55.1875 82.101562 L 27.730469 104.5 Z M 63.070312 125.519531 L 31.808594 134.296875 L 27.984375 105.929688 Z M 63.882812 126.109375 L 75.53125 150.066406 L 32.769531 134.839844 Z M 76.457031 150.164062 L 64.773438 126.136719 L 102.058594 131.578125 Z M 103.414062 130.550781 L 101.128906 98.214844 L 134.542969 105.414062 Z M 134.410156 106.527344 L 120.820312 137.238281 L 103.867188 131.195312 Z M 135.710938 105.535156 L 147.25 102.628906 L 122.75 134.828125 Z M 127.597656 61.261719 L 135.492188 32.199219 L 149.730469 69.46875 Z M 102.765625 5.542969 L 133.859375 30.191406 L 100.269531 22.933594 Z M 75.605469 1.566406 L 96.65625 4.417969 L 65.53125 4.417969 Z M 102.019531 5.203125 L 99.515625 22.648438 L 63.976562 5.203125 Z M 27.582031 25.257812 L 30.632812 14.300781 L 59.199219 6.210938 Z M 1.339844 81.136719 L 2.476562 60.613281 L 3 91.515625 Z M 16.667969 121.222656 L 6.230469 101.410156 L 28.941406 132.039062 Z M 4.558594 97.832031 L 27.132812 105.496094 L 30.882812 133.332031 Z M 34.285156 136.210938 L 72.257812 149.734375 L 49.074219 146.140625 Z M 103.136719 131.769531 L 119.757812 137.695312 L 78.367188 149.75 Z M 103.136719 131.769531 " fill-opacity="1" fill-rule="nonzero"/></g></g></g></g><g fill="#ffffff" fill-opacity="1"><g transform="translate(21.16289, 136.121568)"><g><path d="M 1.675781 0 L 30.445312 0 C 36.144531 0 39.921875 -3.859375 39.921875 -8.597656 L 39.921875 -29.351562 L 14.425781 -29.351562 L 14.425781 -22.980469 L 32.917969 -22.980469 L 32.917969 -8.933594 C 32.917969 -7.464844 31.785156 -6.375 30.445312 -6.375 L 1.675781 -6.375 Z M 1.675781 0 "/></g></g></g><g fill="#ffffff" fill-opacity="1"><g transform="translate(62.750926, 136.121568)"><g><path d="M 1.675781 0 L 8.679688 0 L 8.679688 -6.375 L 1.675781 -6.375 Z M 1.675781 0 "/></g></g></g><g fill="#ffffff" fill-opacity="1"><g transform="translate(73.10601, 136.121568)"><g/></g></g><g fill="#ffffff" fill-opacity="1"><g transform="translate(91.552313, 136.121568)"><g><path d="M 23.648438 -20.421875 L 23.648438 0 L 30.695312 0 L 30.695312 -20.421875 C 30.695312 -21.890625 31.785156 -22.980469 33.128906 -22.980469 L 43.191406 -22.980469 C 44.53125 -22.980469 45.664062 -21.890625 45.664062 -20.421875 L 45.664062 0 L 52.667969 0 L 52.667969 -20.421875 C 52.667969 -25.496094 48.894531 -29.351562 43.191406 -29.351562 L 33.128906 -29.351562 C 30.777344 -29.351562 28.722656 -28.683594 27.171875 -27.550781 C 25.621094 -28.683594 23.566406 -29.351562 21.21875 -29.351562 L 11.152344 -29.351562 C 5.453125 -29.351562 1.675781 -25.496094 1.675781 -20.421875 L 1.675781 0 L 8.679688 0 L 8.679688 -20.421875 C 8.679688 -21.890625 9.8125 -22.980469 11.152344 -22.980469 L 21.21875 -22.980469 C 22.558594 -22.980469 23.648438 -21.890625 23.648438 -20.421875 Z M 23.648438 -20.421875 "/></g></g></g><g fill="#ffffff" fill-opacity="1"><g transform="translate(145.885075, 136.121568)"><g><path d="M 11.152344 0 L 30.445312 0 C 36.144531 0 39.921875 -3.859375 39.921875 -8.933594 L 39.921875 -20.421875 C 39.921875 -25.496094 36.144531 -29.351562 30.445312 -29.351562 L 11.152344 -29.351562 C 5.453125 -29.351562 1.675781 -25.496094 1.675781 -20.421875 L 1.675781 -8.933594 C 1.675781 -3.859375 5.453125 0 11.152344 0 Z M 8.679688 -8.933594 L 8.679688 -20.421875 C 8.679688 -21.890625 9.8125 -22.980469 11.152344 -22.980469 L 30.445312 -22.980469 C 31.785156 -22.980469 32.917969 -21.890625 32.917969 -20.421875 L 32.917969 -8.933594 C 32.917969 -7.464844 31.785156 -6.375 30.445312 -6.375 L 11.152344 -6.375 C 9.8125 -6.375 8.679688 -7.464844 8.679688 -8.933594 Z M 8.679688 -8.933594 "/></g></g></g><g fill="#ffffff" fill-opacity="1"><g transform="translate(187.473111, 136.121568)"><g><path d="M 1.675781 -29.351562 L 1.675781 0 L 8.050781 0 L 8.050781 -11.53125 L 21.007812 -11.53125 L 21.007812 -8.933594 C 21.007812 -3.859375 24.742188 0 30.445312 0 L 39.921875 0 L 39.921875 -6.375 L 30.445312 -6.375 C 29.101562 -6.375 28.011719 -7.464844 28.011719 -8.933594 L 28.011719 -11.53125 L 30.445312 -11.53125 C 36.144531 -11.53125 39.921875 -15.390625 39.921875 -20.421875 C 39.921875 -25.496094 36.144531 -29.351562 30.445312 -29.351562 Z M 8.050781 -17.90625 L 8.050781 -22.980469 L 30.445312 -22.980469 C 31.785156 -22.980469 32.917969 -21.890625 32.917969 -20.421875 C 32.917969 -18.953125 31.785156 -17.90625 30.445312 -17.90625 Z M 8.050781 -17.90625 "/></g></g></g><g fill="#ffffff" fill-opacity="1"><g transform="translate(229.061147, 136.121568)"><g><path d="M 11.152344 0 L 39.921875 0 L 39.921875 -6.375 L 11.152344 -6.375 C 9.8125 -6.375 8.679688 -7.464844 8.679688 -8.933594 L 8.679688 -11.53125 L 27.171875 -11.53125 L 27.171875 -17.90625 L 8.679688 -17.90625 L 8.679688 -20.421875 C 8.679688 -21.890625 9.8125 -22.980469 11.152344 -22.980469 L 39.921875 -22.980469 L 39.921875 -29.351562 L 11.152344 -29.351562 C 5.453125 -29.351562 1.675781 -25.496094 1.675781 -20.757812 L 1.675781 -8.597656 C 1.675781 -3.859375 5.453125 0 11.152344 0 Z M 11.152344 0 "/></g></g></g><g fill="#ffffff" fill-opacity="1"><g transform="translate(270.649172, 136.121568)"><g><path d="M 1.675781 -20.421875 L 1.675781 0 L 8.679688 0 L 8.679688 -20.421875 C 8.679688 -21.890625 9.8125 -22.980469 11.152344 -22.980469 L 30.445312 -22.980469 C 31.785156 -22.980469 32.917969 -21.890625 32.917969 -20.421875 L 32.917969 0 L 39.921875 0 L 39.921875 -20.421875 C 39.921875 -25.496094 36.144531 -29.351562 30.445312 -29.351562 L 11.152344 -29.351562 C 5.453125 -29.351562 1.675781 -25.496094 1.675781 -20.421875 Z M 1.675781 -20.421875 "/></g></g></g><g fill="#ffffff" fill-opacity="1"><g transform="translate(312.237197, 136.121568)"><g><path d="M 11.152344 0 L 30.445312 0 C 36.144531 0 39.921875 -3.859375 39.921875 -8.933594 L 39.921875 -20.421875 C 39.921875 -25.496094 36.144531 -29.351562 30.445312 -29.351562 L 11.152344 -29.351562 C 5.453125 -29.351562 1.675781 -25.496094 1.675781 -20.421875 L 1.675781 -8.933594 C 1.675781 -3.859375 5.453125 0 11.152344 0 Z M 8.679688 -8.933594 L 8.679688 -20.421875 C 8.679688 -21.890625 9.8125 -22.980469 11.152344 -22.980469 L 30.445312 -22.980469 C 31.785156 -22.980469 32.917969 -21.890625 32.917969 -20.421875 L 32.917969 -8.933594 C 32.917969 -7.464844 31.785156 -6.375 30.445312 -6.375 L 11.152344 -6.375 C 9.8125 -6.375 8.679688 -7.464844 8.679688 -8.933594 Z M 8.679688 -8.933594 "/></g></g></g><g fill="#ffffff" fill-opacity="1"><g transform="translate(41.014914, 163.996299)"><g><path d="M 9.28125 -1.421875 L 8.46875 -0.0625 L 1.203125 -3.546875 L 1.203125 -4.90625 L 8.46875 -8.375 L 9.28125 -7.015625 L 3.40625 -4.234375 Z M 9.28125 -1.421875 "/></g></g></g><g fill="#ffffff" fill-opacity="1"><g transform="translate(52.108758, 163.996299)"><g><path d="M 1.171875 2.21875 L 8.09375 -11.75 L 10.0625 -11.75 L 3.171875 2.21875 Z M 1.171875 2.21875 "/></g></g></g><g fill="#ffffff" fill-opacity="1"><g transform="translate(63.706104, 163.996299)"><g><path d="M 2.4375 0 L 2.4375 -11.75 L 11.171875 -11.75 L 11.171875 -10 L 4.25 -10 L 4.25 -6.640625 L 10.421875 -6.640625 L 10.421875 -4.90625 L 4.25 -4.90625 L 4.25 0 Z M 2.4375 0 "/></g></g></g><g fill="#ffffff" fill-opacity="1"><g transform="translate(76.578994, 163.996299)"><g><path d="M 12.25 -8.078125 C 12.25 -7.296875 12.007812 -6.585938 11.53125 -5.953125 C 11.050781 -5.328125 10.441406 -4.878906 9.703125 -4.609375 L 12.84375 0.015625 L 10.609375 0 L 7.671875 -4.359375 L 4.25 -4.359375 L 4.25 0 L 2.4375 0 L 2.4375 -11.75 L 8.46875 -11.75 C 9.132812 -11.75 9.75 -11.59375 10.3125 -11.28125 C 10.882812 -10.96875 11.347656 -10.535156 11.703125 -9.984375 C 12.066406 -9.429688 12.25 -8.796875 12.25 -8.078125 Z M 8.0625 -10 L 4.25 -10 L 4.25 -6.109375 L 8.265625 -6.109375 C 8.660156 -6.109375 9.015625 -6.195312 9.328125 -6.375 C 9.640625 -6.5625 9.890625 -6.804688 10.078125 -7.109375 C 10.265625 -7.410156 10.359375 -7.738281 10.359375 -8.09375 C 10.359375 -8.457031 10.25 -8.785156 10.03125 -9.078125 C 9.820312 -9.367188 9.539062 -9.59375 9.1875 -9.75 C 8.84375 -9.914062 8.46875 -10 8.0625 -10 Z M 8.0625 -10 "/></g></g></g><g fill="#ffffff" fill-opacity="1"><g transform="translate(91.214141, 163.996299)"><g><path d="M 14.5625 -5.875 C 14.5625 -5.019531 14.398438 -4.226562 14.078125 -3.5 C 13.765625 -2.769531 13.316406 -2.128906 12.734375 -1.578125 C 12.148438 -1.023438 11.460938 -0.59375 10.671875 -0.28125 C 9.878906 0.0195312 9.015625 0.171875 8.078125 0.171875 C 7.109375 0.171875 6.226562 0.0195312 5.4375 -0.28125 C 4.644531 -0.59375 3.957031 -1.023438 3.375 -1.578125 C 2.800781 -2.128906 2.351562 -2.769531 2.03125 -3.5 C 1.71875 -4.226562 1.5625 -5.019531 1.5625 -5.875 C 1.5625 -6.726562 1.71875 -7.519531 2.03125 -8.25 C 2.351562 -8.976562 2.800781 -9.613281 3.375 -10.15625 C 3.957031 -10.707031 4.644531 -11.140625 5.4375 -11.453125 C 6.226562 -11.765625 7.109375 -11.921875 8.078125 -11.921875 C 9.015625 -11.921875 9.878906 -11.765625 10.671875 -11.453125 C 11.460938 -11.140625 12.148438 -10.707031 12.734375 -10.15625 C 13.316406 -9.613281 13.765625 -8.976562 14.078125 -8.25 C 14.398438 -7.519531 14.5625 -6.726562 14.5625 -5.875 Z M 12.71875 -5.875 C 12.71875 -6.6875 12.519531 -7.414062 12.125 -8.0625 C 11.726562 -8.707031 11.179688 -9.21875 10.484375 -9.59375 C 9.785156 -9.96875 8.984375 -10.15625 8.078125 -10.15625 C 7.140625 -10.15625 6.320312 -9.96875 5.625 -9.59375 C 4.925781 -9.21875 4.378906 -8.707031 3.984375 -8.0625 C 3.597656 -7.414062 3.40625 -6.6875 3.40625 -5.875 C 3.40625 -5.050781 3.597656 -4.316406 3.984375 -3.671875 C 4.378906 -3.035156 4.925781 -2.53125 5.625 -2.15625 C 6.320312 -1.78125 7.140625 -1.59375 8.078125 -1.59375 C 8.984375 -1.59375 9.785156 -1.78125 10.484375 -2.15625 C 11.179688 -2.53125 11.726562 -3.039062 12.125 -3.6875 C 12.519531 -4.34375 12.71875 -5.070312 12.71875 -5.875 Z M 12.71875 -5.875 "/></g></g></g><g fill="#ffffff" fill-opacity="1"><g transform="translate(107.343005, 163.996299)"><g><path d="M 12.15625 -11.75 L 13.96875 -11.75 L 13.96875 0 L 12.203125 0 L 3.9375 -9.125 C 4.007812 -8.414062 4.078125 -7.707031 4.140625 -7 C 4.210938 -6.289062 4.25 -5.585938 4.25 -4.890625 L 4.25 0 L 2.4375 0 L 2.4375 -11.75 L 4.15625 -11.75 L 12.421875 -2.40625 C 12.347656 -2.945312 12.289062 -3.535156 12.25 -4.171875 C 12.207031 -4.804688 12.179688 -5.441406 12.171875 -6.078125 C 12.160156 -6.710938 12.15625 -7.316406 12.15625 -7.890625 Z M 12.15625 -11.75 "/></g></g></g><g fill="#ffffff" fill-opacity="1"><g transform="translate(123.740409, 163.996299)"><g><path d="M 5.15625 0 L 5.15625 -10 L 1.1875 -10 L 1.1875 -11.75 L 11.015625 -11.75 L 11.015625 -10 L 6.96875 -10 L 6.96875 0 Z M 5.15625 0 "/></g></g></g><g fill="#ffffff" fill-opacity="1"><g transform="translate(135.94196, 163.996299)"><g><path d="M 1.5625 -4 L 1.5625 -5.65625 L 7.0625 -5.65625 L 7.0625 -4 Z M 1.5625 -4 "/></g></g></g><g fill="#ffffff" fill-opacity="1"><g transform="translate(144.568639, 163.996299)"><g><path d="M 2.4375 -11.75 L 11.140625 -11.75 L 11.140625 -10 L 4.25 -10 L 4.25 -6.890625 L 10.21875 -6.890625 L 10.21875 -5.15625 L 4.25 -5.15625 L 4.25 -1.75 L 11.140625 -1.75 L 11.140625 0 L 2.4375 0 Z M 2.4375 -11.75 "/></g></g></g><g fill="#ffffff" fill-opacity="1"><g transform="translate(157.777194, 163.996299)"><g><path d="M 12.15625 -11.75 L 13.96875 -11.75 L 13.96875 0 L 12.203125 0 L 3.9375 -9.125 C 4.007812 -8.414062 4.078125 -7.707031 4.140625 -7 C 4.210938 -6.289062 4.25 -5.585938 4.25 -4.890625 L 4.25 0 L 2.4375 0 L 2.4375 -11.75 L 4.15625 -11.75 L 12.421875 -2.40625 C 12.347656 -2.945312 12.289062 -3.535156 12.25 -4.171875 C 12.207031 -4.804688 12.179688 -5.441406 12.171875 -6.078125 C 12.160156 -6.710938 12.15625 -7.316406 12.15625 -7.890625 Z M 12.15625 -11.75 "/></g></g></g><g fill="#ffffff" fill-opacity="1"><g transform="translate(174.174598, 163.996299)"><g><path d="M 7.78125 -11.75 C 8.789062 -11.75 9.675781 -11.59375 10.4375 -11.28125 C 11.195312 -10.976562 11.832031 -10.554688 12.34375 -10.015625 C 12.863281 -9.472656 13.25 -8.84375 13.5 -8.125 C 13.757812 -7.414062 13.890625 -6.664062 13.890625 -5.875 C 13.890625 -4.800781 13.660156 -3.816406 13.203125 -2.921875 C 12.742188 -2.035156 12.0625 -1.328125 11.15625 -0.796875 C 10.25 -0.265625 9.125 0 7.78125 0 L 2.4375 0 L 2.4375 -11.75 Z M 7.703125 -1.75 C 8.710938 -1.75 9.53125 -1.9375 10.15625 -2.3125 C 10.789062 -2.6875 11.253906 -3.179688 11.546875 -3.796875 C 11.847656 -4.421875 12 -5.113281 12 -5.875 C 12 -6.613281 11.847656 -7.296875 11.546875 -7.921875 C 11.253906 -8.546875 10.789062 -9.046875 10.15625 -9.421875 C 9.53125 -9.804688 8.710938 -10 7.703125 -10 L 4.25 -10 L 4.25 -1.75 Z M 7.703125 -1.75 "/></g></g></g><g fill="#ffffff" fill-opacity="1"><g transform="translate(189.632134, 163.996299)"><g/></g></g><g fill="#ffffff" fill-opacity="1"><g transform="translate(196.261584, 163.996299)"><g><path d="M 7.78125 -11.75 C 8.789062 -11.75 9.675781 -11.59375 10.4375 -11.28125 C 11.195312 -10.976562 11.832031 -10.554688 12.34375 -10.015625 C 12.863281 -9.472656 13.25 -8.84375 13.5 -8.125 C 13.757812 -7.414062 13.890625 -6.664062 13.890625 -5.875 C 13.890625 -4.800781 13.660156 -3.816406 13.203125 -2.921875 C 12.742188 -2.035156 12.0625 -1.328125 11.15625 -0.796875 C 10.25 -0.265625 9.125 0 7.78125 0 L 2.4375 0 L 2.4375 -11.75 Z M 7.703125 -1.75 C 8.710938 -1.75 9.53125 -1.9375 10.15625 -2.3125 C 10.789062 -2.6875 11.253906 -3.179688 11.546875 -3.796875 C 11.847656 -4.421875 12 -5.113281 12 -5.875 C 12 -6.613281 11.847656 -7.296875 11.546875 -7.921875 C 11.253906 -8.546875 10.789062 -9.046875 10.15625 -9.421875 C 9.53125 -9.804688 8.710938 -10 7.703125 -10 L 4.25 -10 L 4.25 -1.75 Z M 7.703125 -1.75 "/></g></g></g><g fill="#ffffff" fill-opacity="1"><g transform="translate(211.719119, 163.996299)"><g><path d="M 2.4375 -11.75 L 11.140625 -11.75 L 11.140625 -10 L 4.25 -10 L 4.25 -6.890625 L 10.21875 -6.890625 L 10.21875 -5.15625 L 4.25 -5.15625 L 4.25 -1.75 L 11.140625 -1.75 L 11.140625 0 L 2.4375 0 Z M 2.4375 -11.75 "/></g></g></g><g fill="#ffffff" fill-opacity="1"><g transform="translate(224.927674, 163.996299)"><g><path d="M 13.1875 -11.75 L 8.140625 0 L 6.140625 0 L 1.046875 -11.75 L 3.109375 -11.75 L 6.09375 -4.6875 C 6.257812 -4.269531 6.445312 -3.828125 6.65625 -3.359375 C 6.863281 -2.890625 7.054688 -2.4375 7.234375 -2 C 7.390625 -2.4375 7.5625 -2.882812 7.75 -3.34375 C 7.9375 -3.8125 8.117188 -4.253906 8.296875 -4.671875 L 11.0625 -11.75 Z M 13.1875 -11.75 "/></g></g></g><g fill="#ffffff" fill-opacity="1"><g transform="translate(239.160022, 163.996299)"><g><path d="M 2.4375 -11.75 L 11.140625 -11.75 L 11.140625 -10 L 4.25 -10 L 4.25 -6.890625 L 10.21875 -6.890625 L 10.21875 -5.15625 L 4.25 -5.15625 L 4.25 -1.75 L 11.140625 -1.75 L 11.140625 0 L 2.4375 0 Z M 2.4375 -11.75 "/></g></g></g><g fill="#ffffff" fill-opacity="1"><g transform="translate(252.368587, 163.996299)"><g><path d="M 11.0625 -1.75 L 11.0625 0 L 2.4375 0 L 2.4375 -11.75 L 4.25 -11.75 L 4.25 -1.75 Z M 11.0625 -1.75 "/></g></g></g><g fill="#ffffff" fill-opacity="1"><g transform="translate(265.2247, 163.996299)"><g><path d="M 14.5625 -5.875 C 14.5625 -5.019531 14.398438 -4.226562 14.078125 -3.5 C 13.765625 -2.769531 13.316406 -2.128906 12.734375 -1.578125 C 12.148438 -1.023438 11.460938 -0.59375 10.671875 -0.28125 C 9.878906 0.0195312 9.015625 0.171875 8.078125 0.171875 C 7.109375 0.171875 6.226562 0.0195312 5.4375 -0.28125 C 4.644531 -0.59375 3.957031 -1.023438 3.375 -1.578125 C 2.800781 -2.128906 2.351562 -2.769531 2.03125 -3.5 C 1.71875 -4.226562 1.5625 -5.019531 1.5625 -5.875 C 1.5625 -6.726562 1.71875 -7.519531 2.03125 -8.25 C 2.351562 -8.976562 2.800781 -9.613281 3.375 -10.15625 C 3.957031 -10.707031 4.644531 -11.140625 5.4375 -11.453125 C 6.226562 -11.765625 7.109375 -11.921875 8.078125 -11.921875 C 9.015625 -11.921875 9.878906 -11.765625 10.671875 -11.453125 C 11.460938 -11.140625 12.148438 -10.707031 12.734375 -10.15625 C 13.316406 -9.613281 13.765625 -8.976562 14.078125 -8.25 C 14.398438 -7.519531 14.5625 -6.726562 14.5625 -5.875 Z M 12.71875 -5.875 C 12.71875 -6.6875 12.519531 -7.414062 12.125 -8.0625 C 11.726562 -8.707031 11.179688 -9.21875 10.484375 -9.59375 C 9.785156 -9.96875 8.984375 -10.15625 8.078125 -10.15625 C 7.140625 -10.15625 6.320312 -9.96875 5.625 -9.59375 C 4.925781 -9.21875 4.378906 -8.707031 3.984375 -8.0625 C 3.597656 -7.414062 3.40625 -6.6875 3.40625 -5.875 C 3.40625 -5.050781 3.597656 -4.316406 3.984375 -3.671875 C 4.378906 -3.035156 4.925781 -2.53125 5.625 -2.15625 C 6.320312 -1.78125 7.140625 -1.59375 8.078125 -1.59375 C 8.984375 -1.59375 9.785156 -1.78125 10.484375 -2.15625 C 11.179688 -2.53125 11.726562 -3.039062 12.125 -3.6875 C 12.519531 -4.34375 12.71875 -5.070312 12.71875 -5.875 Z M 12.71875 -5.875 "/></g></g></g><g fill="#ffffff" fill-opacity="1"><g transform="translate(281.353563, 163.996299)"><g><path d="M 8.375 -11.75 C 9.039062 -11.75 9.648438 -11.585938 10.203125 -11.265625 C 10.765625 -10.953125 11.207031 -10.519531 11.53125 -9.96875 C 11.863281 -9.425781 12.03125 -8.816406 12.03125 -8.140625 C 12.03125 -7.441406 11.851562 -6.8125 11.5 -6.25 C 11.15625 -5.6875 10.691406 -5.234375 10.109375 -4.890625 C 9.523438 -4.554688 8.882812 -4.390625 8.1875 -4.390625 L 4.25 -4.390625 L 4.25 0 L 2.4375 0 L 2.4375 -11.75 Z M 8.09375 -6.140625 C 8.457031 -6.140625 8.796875 -6.234375 9.109375 -6.421875 C 9.421875 -6.609375 9.671875 -6.851562 9.859375 -7.15625 C 10.046875 -7.457031 10.140625 -7.785156 10.140625 -8.140625 C 10.140625 -8.484375 10.046875 -8.796875 9.859375 -9.078125 C 9.671875 -9.359375 9.421875 -9.582031 9.109375 -9.75 C 8.796875 -9.914062 8.457031 -10 8.09375 -10 L 4.25 -10 L 4.25 -6.140625 Z M 8.09375 -6.140625 "/></g></g></g><g fill="#ffffff" fill-opacity="1"><g transform="translate(294.998496, 163.996299)"><g><path d="M 2.4375 -11.75 L 11.140625 -11.75 L 11.140625 -10 L 4.25 -10 L 4.25 -6.890625 L 10.21875 -6.890625 L 10.21875 -5.15625 L 4.25 -5.15625 L 4.25 -1.75 L 11.140625 -1.75 L 11.140625 0 L 2.4375 0 Z M 2.4375 -11.75 "/></g></g></g><g fill="#ffffff" fill-opacity="1"><g transform="translate(308.207062, 163.996299)"><g><path d="M 12.25 -8.078125 C 12.25 -7.296875 12.007812 -6.585938 11.53125 -5.953125 C 11.050781 -5.328125 10.441406 -4.878906 9.703125 -4.609375 L 12.84375 0.015625 L 10.609375 0 L 7.671875 -4.359375 L 4.25 -4.359375 L 4.25 0 L 2.4375 0 L 2.4375 -11.75 L 8.46875 -11.75 C 9.132812 -11.75 9.75 -11.59375 10.3125 -11.28125 C 10.882812 -10.96875 11.347656 -10.535156 11.703125 -9.984375 C 12.066406 -9.429688 12.25 -8.796875 12.25 -8.078125 Z M 8.0625 -10 L 4.25 -10 L 4.25 -6.109375 L 8.265625 -6.109375 C 8.660156 -6.109375 9.015625 -6.195312 9.328125 -6.375 C 9.640625 -6.5625 9.890625 -6.804688 10.078125 -7.109375 C 10.265625 -7.410156 10.359375 -7.738281 10.359375 -8.09375 C 10.359375 -8.457031 10.25 -8.785156 10.03125 -9.078125 C 9.820312 -9.367188 9.539062 -9.59375 9.1875 -9.75 C 8.84375 -9.914062 8.46875 -10 8.0625 -10 Z M 8.0625 -10 "/></g></g></g><g fill="#ffffff" fill-opacity="1"><g transform="translate(322.842198, 163.996299)"><g><path d="M 9.84375 -3.546875 L 2.5625 -0.0625 L 1.765625 -1.421875 L 7.640625 -4.234375 L 1.765625 -7.015625 L 2.5625 -8.375 L 9.84375 -4.90625 Z M 9.84375 -3.546875 "/></g></g></g></svg>