<svg xmlns="http://www.w3.org/2000/svg" xmlns:xlink="http://www.w3.org/1999/xlink" width="500" zoomAndPan="magnify" viewBox="0 0 375 187.499995" height="250" preserveAspectRatio="xMidYMid meet" version="1.0"><defs><filter x="0%" y="0%" width="100%" height="100%" id="id1"><feColorMatrix values="0 0 0 0 1 0 0 0 0 1 0 0 0 0 1 0 0 0 1 0" color-interpolation-filters="sRGB"/></filter><g/><mask id="id2"><g filter="url(#id1)"><rect x="-37.5" width="450" fill="#000000" y="-18.749999" height="224.999994" fill-opacity="0.2784"/></g></mask><clipPath id="id3"><path d="M 1 0.773438 L 151.332031 0.773438 L 151.332031 151.121094 L 1 151.121094 Z M 1 0.773438 " clip-rule="nonzero"/></clipPath><clipPath id="id4"><rect x="0" width="152" y="0" height="152"/></clipPath><mask id="id5"><g filter="url(#id1)"><rect x="-37.5" width="450" fill="#000000" y="-18.749999" height="224.999994" fill-opacity="0.2784"/></g></mask><clipPath id="id6"><path d="M 1 0.773438 L 151.332031 0.773438 L 151.332031 151.121094 L 1 151.121094 Z M 1 0.773438 " clip-rule="nonzero"/></clipPath><clipPath id="id7"><rect x="0" width="152" y="0" height="152"/></clipPath></defs><g mask="url(#id2)"><g transform="matrix(1, 0, 0, 1, 11, 17)"><g clip-path="url(#id4)"><g clip-path="url(#id3)"><path fill="#000000" d="M 151.273438 70.164062 C 151.277344 70.109375 151.265625 70.058594 151.25 70.007812 C 151.25 70.003906 151.25 70.003906 151.25 70 L 136.265625 30.792969 C 136.265625 30.785156 136.257812 30.785156 136.257812 30.777344 C 136.230469 30.71875 136.199219 30.664062 136.144531 30.625 L 103.195312 4.507812 C 103.144531 4.464844 103.082031 4.433594 103.011719 4.421875 C 103.007812 4.421875 103 4.421875 102.996094 4.421875 L 76.101562 0.777344 C 76.050781 0.769531 75.992188 0.773438 75.941406 0.789062 L 63.125 4.417969 L 62.757812 4.417969 C 62.683594 4.417969 62.617188 4.4375 62.554688 4.472656 L 62.226562 4.671875 L 30.679688 13.605469 C 30.667969 13.609375 30.660156 13.617188 30.652344 13.621094 C 30.609375 13.636719 30.570312 13.660156 30.535156 13.6875 C 30.523438 13.699219 30.507812 13.710938 30.496094 13.722656 C 30.488281 13.730469 30.480469 13.734375 30.472656 13.742188 L 2.84375 49.484375 C 2.835938 49.496094 2.832031 49.507812 2.828125 49.519531 C 2.816406 49.535156 2.804688 49.550781 2.796875 49.566406 C 2.792969 49.578125 2.789062 49.589844 2.785156 49.601562 C 2.78125 49.621094 2.777344 49.644531 2.773438 49.664062 C 2.769531 49.679688 2.765625 49.6875 2.761719 49.703125 L 1.023438 81.136719 C 1.023438 81.164062 1.023438 81.191406 1.027344 81.21875 L 3.574219 97.117188 C 3.578125 97.136719 3.589844 97.152344 3.59375 97.175781 C 3.597656 97.1875 3.597656 97.203125 3.605469 97.214844 C 3.605469 97.21875 3.609375 97.21875 3.609375 97.222656 C 3.613281 97.226562 3.613281 97.234375 3.613281 97.238281 L 16.476562 121.652344 C 16.5 121.695312 16.53125 121.730469 16.566406 121.761719 L 31.652344 135.054688 C 31.675781 135.082031 31.703125 135.105469 31.734375 135.125 L 49.179688 146.84375 C 49.226562 146.875 49.28125 146.894531 49.339844 146.90625 L 76.710938 151.144531 L 76.714844 151.144531 C 76.71875 151.144531 76.71875 151.148438 76.71875 151.148438 C 76.742188 151.148438 76.761719 151.152344 76.78125 151.152344 C 76.808594 151.152344 76.835938 151.148438 76.863281 151.144531 C 76.863281 151.144531 76.863281 151.144531 76.863281 151.140625 C 76.867188 151.140625 76.867188 151.140625 76.867188 151.140625 C 76.871094 151.140625 76.871094 151.140625 76.875 151.140625 C 76.875 151.140625 76.878906 151.140625 76.875 151.140625 C 76.875 151.140625 76.878906 151.140625 76.878906 151.140625 L 76.878906 151.136719 C 76.878906 151.136719 76.878906 151.136719 76.882812 151.136719 C 76.886719 151.136719 76.886719 151.136719 76.886719 151.136719 L 121.613281 138.109375 C 121.632812 138.105469 121.640625 138.089844 121.65625 138.082031 C 121.699219 138.0625 121.734375 138.039062 121.765625 138.003906 C 121.78125 137.992188 121.804688 137.988281 121.816406 137.96875 L 149.027344 102.210938 C 149.070312 102.152344 149.089844 102.089844 149.097656 102.023438 C 149.097656 102.015625 149.105469 102.007812 149.105469 102 Z M 148.339844 101.664062 L 136.574219 104.628906 L 150.332031 72.429688 Z M 100.589844 97.101562 L 57.226562 81.894531 L 89.929688 58.425781 Z M 89.933594 57.160156 L 57.320312 35.902344 L 99.722656 23.8125 Z M 89.464844 57.792969 L 56.777344 81.25 L 56.777344 36.488281 Z M 55.988281 81.386719 L 18.890625 63.242188 L 55.988281 36.53125 Z M 64.023438 124.886719 L 28.660156 105.140625 L 56.117188 82.742188 Z M 56.894531 82.613281 L 100.351562 97.851562 L 64.835938 124.941406 Z M 100.828125 98.476562 L 103.117188 130.871094 L 65.546875 125.386719 Z M 101.332031 96.828125 L 90.691406 58.226562 L 126.871094 61.828125 Z M 127.378906 62.472656 L 135.402344 104.691406 L 101.84375 97.464844 Z M 136.042969 103.859375 L 128.113281 62.117188 L 150.355469 70.363281 Z M 127.433594 60.601562 L 101.210938 23.839844 L 135.410156 31.230469 Z M 126.773438 61.03125 L 90.671875 57.433594 L 100.453125 24.128906 Z M 56.898438 35.207031 L 63.042969 5.386719 L 99.210938 23.140625 Z M 56.085938 35.25 L 28.339844 26.003906 L 62.191406 5.609375 Z M 55.53125 35.890625 L 18.769531 62.359375 L 27.6875 26.613281 Z M 17.90625 62.574219 L 3.730469 49.714844 L 26.691406 27.355469 Z M 27.054688 25.902344 L 6.882812 45.542969 L 29.867188 15.816406 Z M 17.660156 63.410156 L 4.324219 95.171875 L 3.566406 50.625 Z M 18.023438 64.578125 L 27.417969 104.601562 L 4.488281 96.816406 Z M 18.703125 64.023438 L 55.660156 82.101562 L 28.203125 104.5 Z M 63.542969 125.519531 L 32.277344 134.296875 L 28.457031 105.929688 Z M 64.355469 126.109375 L 76.003906 150.066406 L 33.242188 134.839844 Z M 76.929688 150.164062 L 65.242188 126.136719 L 102.53125 131.578125 Z M 103.886719 130.550781 L 101.597656 98.214844 L 135.015625 105.414062 Z M 134.882812 106.527344 L 121.292969 137.238281 L 104.335938 131.195312 Z M 136.183594 105.535156 L 147.722656 102.628906 L 123.21875 134.828125 Z M 128.070312 61.261719 L 135.960938 32.199219 L 150.203125 69.46875 Z M 103.238281 5.542969 L 134.332031 30.191406 L 100.742188 22.933594 Z M 76.078125 1.566406 L 97.125 4.417969 L 66.003906 4.417969 Z M 102.492188 5.203125 L 99.988281 22.648438 L 64.449219 5.203125 Z M 28.054688 25.257812 L 31.105469 14.300781 L 59.671875 6.210938 Z M 1.8125 81.136719 L 2.945312 60.613281 L 3.472656 91.515625 Z M 17.140625 121.222656 L 6.703125 101.410156 L 29.414062 132.039062 Z M 5.027344 97.832031 L 27.605469 105.496094 L 31.355469 133.332031 Z M 34.757812 136.210938 L 72.730469 149.734375 L 49.546875 146.140625 Z M 103.609375 131.769531 L 120.230469 137.695312 L 78.835938 149.75 Z M 103.609375 131.769531 " fill-opacity="1" fill-rule="nonzero"/></g></g></g></g><g mask="url(#id5)"><g transform="matrix(1, 0, 0, 1, 11, 17)"><g clip-path="url(#id7)"><g clip-path="url(#id6)"><path fill="#000000" d="M 151.273438 70.164062 C 151.277344 70.109375 151.265625 70.058594 151.25 70.007812 C 151.25 70.003906 151.25 70.003906 151.25 70 L 136.265625 30.792969 C 136.265625 30.785156 136.257812 30.785156 136.257812 30.777344 C 136.230469 30.71875 136.199219 30.664062 136.144531 30.625 L 103.195312 4.507812 C 103.144531 4.464844 103.082031 4.433594 103.011719 4.421875 C 103.007812 4.421875 103 4.421875 102.996094 4.421875 L 76.101562 0.777344 C 76.050781 0.769531 75.992188 0.773438 75.941406 0.789062 L 63.125 4.417969 L 62.757812 4.417969 C 62.683594 4.417969 62.617188 4.4375 62.554688 4.472656 L 62.226562 4.671875 L 30.679688 13.605469 C 30.667969 13.609375 30.660156 13.617188 30.652344 13.621094 C 30.609375 13.636719 30.570312 13.660156 30.535156 13.6875 C 30.523438 13.699219 30.507812 13.710938 30.496094 13.722656 C 30.488281 13.730469 30.480469 13.734375 30.472656 13.742188 L 2.84375 49.484375 C 2.835938 49.496094 2.832031 49.507812 2.828125 49.519531 C 2.816406 49.535156 2.804688 49.550781 2.796875 49.566406 C 2.792969 49.578125 2.789062 49.589844 2.785156 49.601562 C 2.78125 49.621094 2.777344 49.644531 2.773438 49.664062 C 2.769531 49.679688 2.765625 49.6875 2.761719 49.703125 L 1.023438 81.136719 C 1.023438 81.164062 1.023438 81.191406 1.027344 81.21875 L 3.574219 97.117188 C 3.578125 97.136719 3.589844 97.152344 3.59375 97.175781 C 3.597656 97.1875 3.597656 97.203125 3.605469 97.214844 C 3.605469 97.21875 3.609375 97.21875 3.609375 97.222656 C 3.613281 97.226562 3.613281 97.234375 3.613281 97.238281 L 16.476562 121.652344 C 16.5 121.695312 16.53125 121.730469 16.566406 121.761719 L 31.652344 135.054688 C 31.675781 135.082031 31.703125 135.105469 31.734375 135.125 L 49.179688 146.84375 C 49.226562 146.875 49.28125 146.894531 49.339844 146.90625 L 76.710938 151.144531 L 76.714844 151.144531 C 76.71875 151.144531 76.71875 151.148438 76.71875 151.148438 C 76.742188 151.148438 76.761719 151.152344 76.78125 151.152344 C 76.808594 151.152344 76.835938 151.148438 76.863281 151.144531 C 76.863281 151.144531 76.863281 151.144531 76.863281 151.140625 C 76.867188 151.140625 76.867188 151.140625 76.867188 151.140625 C 76.871094 151.140625 76.871094 151.140625 76.875 151.140625 C 76.875 151.140625 76.878906 151.140625 76.875 151.140625 C 76.875 151.140625 76.878906 151.140625 76.878906 151.140625 L 76.878906 151.136719 C 76.878906 151.136719 76.878906 151.136719 76.882812 151.136719 C 76.886719 151.136719 76.886719 151.136719 76.886719 151.136719 L 121.613281 138.109375 C 121.632812 138.105469 121.640625 138.089844 121.65625 138.082031 C 121.699219 138.0625 121.734375 138.039062 121.765625 138.003906 C 121.78125 137.992188 121.804688 137.988281 121.816406 137.96875 L 149.027344 102.210938 C 149.070312 102.152344 149.089844 102.089844 149.097656 102.023438 C 149.097656 102.015625 149.105469 102.007812 149.105469 102 Z M 148.339844 101.664062 L 136.574219 104.628906 L 150.332031 72.429688 Z M 100.589844 97.101562 L 57.226562 81.894531 L 89.929688 58.425781 Z M 89.933594 57.160156 L 57.320312 35.902344 L 99.722656 23.8125 Z M 89.464844 57.792969 L 56.777344 81.25 L 56.777344 36.488281 Z M 55.988281 81.386719 L 18.890625 63.242188 L 55.988281 36.53125 Z M 64.023438 124.886719 L 28.660156 105.140625 L 56.117188 82.742188 Z M 56.894531 82.613281 L 100.351562 97.851562 L 64.835938 124.941406 Z M 100.828125 98.476562 L 103.117188 130.871094 L 65.546875 125.386719 Z M 101.332031 96.828125 L 90.691406 58.226562 L 126.871094 61.828125 Z M 127.378906 62.472656 L 135.402344 104.691406 L 101.84375 97.464844 Z M 136.042969 103.859375 L 128.113281 62.117188 L 150.355469 70.363281 Z M 127.433594 60.601562 L 101.210938 23.839844 L 135.410156 31.230469 Z M 126.773438 61.03125 L 90.671875 57.433594 L 100.453125 24.128906 Z M 56.898438 35.207031 L 63.042969 5.386719 L 99.210938 23.140625 Z M 56.085938 35.25 L 28.339844 26.003906 L 62.191406 5.609375 Z M 55.53125 35.890625 L 18.769531 62.359375 L 27.6875 26.613281 Z M 17.90625 62.574219 L 3.730469 49.714844 L 26.691406 27.355469 Z M 27.054688 25.902344 L 6.882812 45.542969 L 29.867188 15.816406 Z M 17.660156 63.410156 L 4.324219 95.171875 L 3.566406 50.625 Z M 18.023438 64.578125 L 27.417969 104.601562 L 4.488281 96.816406 Z M 18.703125 64.023438 L 55.660156 82.101562 L 28.203125 104.5 Z M 63.542969 125.519531 L 32.277344 134.296875 L 28.457031 105.929688 Z M 64.355469 126.109375 L 76.003906 150.066406 L 33.242188 134.839844 Z M 76.929688 150.164062 L 65.242188 126.136719 L 102.53125 131.578125 Z M 103.886719 130.550781 L 101.597656 98.214844 L 135.015625 105.414062 Z M 134.882812 106.527344 L 121.292969 137.238281 L 104.335938 131.195312 Z M 136.183594 105.535156 L 147.722656 102.628906 L 123.21875 134.828125 Z M 128.070312 61.261719 L 135.960938 32.199219 L 150.203125 69.46875 Z M 103.238281 5.542969 L 134.332031 30.191406 L 100.742188 22.933594 Z M 76.078125 1.566406 L 97.125 4.417969 L 66.003906 4.417969 Z M 102.492188 5.203125 L 99.988281 22.648438 L 64.449219 5.203125 Z M 28.054688 25.257812 L 31.105469 14.300781 L 59.671875 6.210938 Z M 1.8125 81.136719 L 2.945312 60.613281 L 3.472656 91.515625 Z M 17.140625 121.222656 L 6.703125 101.410156 L 29.414062 132.039062 Z M 5.027344 97.832031 L 27.605469 105.496094 L 31.355469 133.332031 Z M 34.757812 136.210938 L 72.730469 149.734375 L 49.546875 146.140625 Z M 103.609375 131.769531 L 120.230469 137.695312 L 78.835938 149.75 Z M 103.609375 131.769531 " fill-opacity="1" fill-rule="nonzero"/></g></g></g></g><g fill="#000000" fill-opacity="1"><g transform="translate(31.65906, 100.0336)"><g><path d="M 1.675781 0 L 30.445312 0 C 36.144531 0 39.921875 -3.859375 39.921875 -8.597656 L 39.921875 -29.351562 L 14.425781 -29.351562 L 14.425781 -22.980469 L 32.917969 -22.980469 L 32.917969 -8.933594 C 32.917969 -7.464844 31.785156 -6.375 30.445312 -6.375 L 1.675781 -6.375 Z M 1.675781 0 "/></g></g></g><g fill="#000000" fill-opacity="1"><g transform="translate(73.247096, 100.0336)"><g><path d="M 1.675781 0 L 8.679688 0 L 8.679688 -6.375 L 1.675781 -6.375 Z M 1.675781 0 "/></g></g></g><g fill="#000000" fill-opacity="1"><g transform="translate(83.60218, 100.0336)"><g/></g></g><g fill="#000000" fill-opacity="1"><g transform="translate(102.048484, 100.0336)"><g><path d="M 23.648438 -20.421875 L 23.648438 0 L 30.695312 0 L 30.695312 -20.421875 C 30.695312 -21.890625 31.785156 -22.980469 33.128906 -22.980469 L 43.191406 -22.980469 C 44.53125 -22.980469 45.664062 -21.890625 45.664062 -20.421875 L 45.664062 0 L 52.667969 0 L 52.667969 -20.421875 C 52.667969 -25.496094 48.894531 -29.351562 43.191406 -29.351562 L 33.128906 -29.351562 C 30.777344 -29.351562 28.722656 -28.683594 27.171875 -27.550781 C 25.621094 -28.683594 23.566406 -29.351562 21.21875 -29.351562 L 11.152344 -29.351562 C 5.453125 -29.351562 1.675781 -25.496094 1.675781 -20.421875 L 1.675781 0 L 8.679688 0 L 8.679688 -20.421875 C 8.679688 -21.890625 9.8125 -22.980469 11.152344 -22.980469 L 21.21875 -22.980469 C 22.558594 -22.980469 23.648438 -21.890625 23.648438 -20.421875 Z M 23.648438 -20.421875 "/></g></g></g><g fill="#000000" fill-opacity="1"><g transform="translate(156.381246, 100.0336)"><g><path d="M 11.152344 0 L 30.445312 0 C 36.144531 0 39.921875 -3.859375 39.921875 -8.933594 L 39.921875 -20.421875 C 39.921875 -25.496094 36.144531 -29.351562 30.445312 -29.351562 L 11.152344 -29.351562 C 5.453125 -29.351562 1.675781 -25.496094 1.675781 -20.421875 L 1.675781 -8.933594 C 1.675781 -3.859375 5.453125 0 11.152344 0 Z M 8.679688 -8.933594 L 8.679688 -20.421875 C 8.679688 -21.890625 9.8125 -22.980469 11.152344 -22.980469 L 30.445312 -22.980469 C 31.785156 -22.980469 32.917969 -21.890625 32.917969 -20.421875 L 32.917969 -8.933594 C 32.917969 -7.464844 31.785156 -6.375 30.445312 -6.375 L 11.152344 -6.375 C 9.8125 -6.375 8.679688 -7.464844 8.679688 -8.933594 Z M 8.679688 -8.933594 "/></g></g></g><g fill="#000000" fill-opacity="1"><g transform="translate(197.969282, 100.0336)"><g><path d="M 1.675781 -29.351562 L 1.675781 0 L 8.050781 0 L 8.050781 -11.53125 L 21.007812 -11.53125 L 21.007812 -8.933594 C 21.007812 -3.859375 24.742188 0 30.445312 0 L 39.921875 0 L 39.921875 -6.375 L 30.445312 -6.375 C 29.101562 -6.375 28.011719 -7.464844 28.011719 -8.933594 L 28.011719 -11.53125 L 30.445312 -11.53125 C 36.144531 -11.53125 39.921875 -15.390625 39.921875 -20.421875 C 39.921875 -25.496094 36.144531 -29.351562 30.445312 -29.351562 Z M 8.050781 -17.90625 L 8.050781 -22.980469 L 30.445312 -22.980469 C 31.785156 -22.980469 32.917969 -21.890625 32.917969 -20.421875 C 32.917969 -18.953125 31.785156 -17.90625 30.445312 -17.90625 Z M 8.050781 -17.90625 "/></g></g></g><g fill="#000000" fill-opacity="1"><g transform="translate(239.557317, 100.0336)"><g><path d="M 11.152344 0 L 39.921875 0 L 39.921875 -6.375 L 11.152344 -6.375 C 9.8125 -6.375 8.679688 -7.464844 8.679688 -8.933594 L 8.679688 -11.53125 L 27.171875 -11.53125 L 27.171875 -17.90625 L 8.679688 -17.90625 L 8.679688 -20.421875 C 8.679688 -21.890625 9.8125 -22.980469 11.152344 -22.980469 L 39.921875 -22.980469 L 39.921875 -29.351562 L 11.152344 -29.351562 C 5.453125 -29.351562 1.675781 -25.496094 1.675781 -20.757812 L 1.675781 -8.597656 C 1.675781 -3.859375 5.453125 0 11.152344 0 Z M 11.152344 0 "/></g></g></g><g fill="#000000" fill-opacity="1"><g transform="translate(281.145342, 100.0336)"><g><path d="M 1.675781 -20.421875 L 1.675781 0 L 8.679688 0 L 8.679688 -20.421875 C 8.679688 -21.890625 9.8125 -22.980469 11.152344 -22.980469 L 30.445312 -22.980469 C 31.785156 -22.980469 32.917969 -21.890625 32.917969 -20.421875 L 32.917969 0 L 39.921875 0 L 39.921875 -20.421875 C 39.921875 -25.496094 36.144531 -29.351562 30.445312 -29.351562 L 11.152344 -29.351562 C 5.453125 -29.351562 1.675781 -25.496094 1.675781 -20.421875 Z M 1.675781 -20.421875 "/></g></g></g><g fill="#000000" fill-opacity="1"><g transform="translate(322.733367, 100.0336)"><g><path d="M 11.152344 0 L 30.445312 0 C 36.144531 0 39.921875 -3.859375 39.921875 -8.933594 L 39.921875 -20.421875 C 39.921875 -25.496094 36.144531 -29.351562 30.445312 -29.351562 L 11.152344 -29.351562 C 5.453125 -29.351562 1.675781 -25.496094 1.675781 -20.421875 L 1.675781 -8.933594 C 1.675781 -3.859375 5.453125 0 11.152344 0 Z M 8.679688 -8.933594 L 8.679688 -20.421875 C 8.679688 -21.890625 9.8125 -22.980469 11.152344 -22.980469 L 30.445312 -22.980469 C 31.785156 -22.980469 32.917969 -21.890625 32.917969 -20.421875 L 32.917969 -8.933594 C 32.917969 -7.464844 31.785156 -6.375 30.445312 -6.375 L 11.152344 -6.375 C 9.8125 -6.375 8.679688 -7.464844 8.679688 -8.933594 Z M 8.679688 -8.933594 "/></g></g></g><g fill="#000000" fill-opacity="1"><g transform="translate(51.511079, 121.916026)"><g><path d="M 9.28125 -1.421875 L 8.46875 -0.0625 L 1.203125 -3.546875 L 1.203125 -4.90625 L 8.46875 -8.375 L 9.28125 -7.015625 L 3.40625 -4.234375 Z M 9.28125 -1.421875 "/></g></g></g><g fill="#000000" fill-opacity="1"><g transform="translate(62.604923, 121.916026)"><g><path d="M 1.171875 2.21875 L 8.09375 -11.75 L 10.0625 -11.75 L 3.171875 2.21875 Z M 1.171875 2.21875 "/></g></g></g><g fill="#000000" fill-opacity="1"><g transform="translate(74.202269, 121.916026)"><g><path d="M 2.4375 0 L 2.4375 -11.75 L 11.171875 -11.75 L 11.171875 -10 L 4.25 -10 L 4.25 -6.640625 L 10.421875 -6.640625 L 10.421875 -4.90625 L 4.25 -4.90625 L 4.25 0 Z M 2.4375 0 "/></g></g></g><g fill="#000000" fill-opacity="1"><g transform="translate(87.075159, 121.916026)"><g><path d="M 12.25 -8.078125 C 12.25 -7.296875 12.007812 -6.585938 11.53125 -5.953125 C 11.050781 -5.328125 10.441406 -4.878906 9.703125 -4.609375 L 12.84375 0.015625 L 10.609375 0 L 7.671875 -4.359375 L 4.25 -4.359375 L 4.25 0 L 2.4375 0 L 2.4375 -11.75 L 8.46875 -11.75 C 9.132812 -11.75 9.75 -11.59375 10.3125 -11.28125 C 10.882812 -10.96875 11.347656 -10.535156 11.703125 -9.984375 C 12.066406 -9.429688 12.25 -8.796875 12.25 -8.078125 Z M 8.0625 -10 L 4.25 -10 L 4.25 -6.109375 L 8.265625 -6.109375 C 8.660156 -6.109375 9.015625 -6.195312 9.328125 -6.375 C 9.640625 -6.5625 9.890625 -6.804688 10.078125 -7.109375 C 10.265625 -7.410156 10.359375 -7.738281 10.359375 -8.09375 C 10.359375 -8.457031 10.25 -8.785156 10.03125 -9.078125 C 9.820312 -9.367188 9.539062 -9.59375 9.1875 -9.75 C 8.84375 -9.914062 8.46875 -10 8.0625 -10 Z M 8.0625 -10 "/></g></g></g><g fill="#000000" fill-opacity="1"><g transform="translate(101.710307, 121.916026)"><g><path d="M 14.5625 -5.875 C 14.5625 -5.019531 14.398438 -4.226562 14.078125 -3.5 C 13.765625 -2.769531 13.316406 -2.128906 12.734375 -1.578125 C 12.148438 -1.023438 11.460938 -0.59375 10.671875 -0.28125 C 9.878906 0.0195312 9.015625 0.171875 8.078125 0.171875 C 7.109375 0.171875 6.226562 0.0195312 5.4375 -0.28125 C 4.644531 -0.59375 3.957031 -1.023438 3.375 -1.578125 C 2.800781 -2.128906 2.351562 -2.769531 2.03125 -3.5 C 1.71875 -4.226562 1.5625 -5.019531 1.5625 -5.875 C 1.5625 -6.726562 1.71875 -7.519531 2.03125 -8.25 C 2.351562 -8.976562 2.800781 -9.613281 3.375 -10.15625 C 3.957031 -10.707031 4.644531 -11.140625 5.4375 -11.453125 C 6.226562 -11.765625 7.109375 -11.921875 8.078125 -11.921875 C 9.015625 -11.921875 9.878906 -11.765625 10.671875 -11.453125 C 11.460938 -11.140625 12.148438 -10.707031 12.734375 -10.15625 C 13.316406 -9.613281 13.765625 -8.976562 14.078125 -8.25 C 14.398438 -7.519531 14.5625 -6.726562 14.5625 -5.875 Z M 12.71875 -5.875 C 12.71875 -6.6875 12.519531 -7.414062 12.125 -8.0625 C 11.726562 -8.707031 11.179688 -9.21875 10.484375 -9.59375 C 9.785156 -9.96875 8.984375 -10.15625 8.078125 -10.15625 C 7.140625 -10.15625 6.320312 -9.96875 5.625 -9.59375 C 4.925781 -9.21875 4.378906 -8.707031 3.984375 -8.0625 C 3.597656 -7.414062 3.40625 -6.6875 3.40625 -5.875 C 3.40625 -5.050781 3.597656 -4.316406 3.984375 -3.671875 C 4.378906 -3.035156 4.925781 -2.53125 5.625 -2.15625 C 6.320312 -1.78125 7.140625 -1.59375 8.078125 -1.59375 C 8.984375 -1.59375 9.785156 -1.78125 10.484375 -2.15625 C 11.179688 -2.53125 11.726562 -3.039062 12.125 -3.6875 C 12.519531 -4.34375 12.71875 -5.070312 12.71875 -5.875 Z M 12.71875 -5.875 "/></g></g></g><g fill="#000000" fill-opacity="1"><g transform="translate(117.83917, 121.916026)"><g><path d="M 12.15625 -11.75 L 13.96875 -11.75 L 13.96875 0 L 12.203125 0 L 3.9375 -9.125 C 4.007812 -8.414062 4.078125 -7.707031 4.140625 -7 C 4.210938 -6.289062 4.25 -5.585938 4.25 -4.890625 L 4.25 0 L 2.4375 0 L 2.4375 -11.75 L 4.15625 -11.75 L 12.421875 -2.40625 C 12.347656 -2.945312 12.289062 -3.535156 12.25 -4.171875 C 12.207031 -4.804688 12.179688 -5.441406 12.171875 -6.078125 C 12.160156 -6.710938 12.15625 -7.316406 12.15625 -7.890625 Z M 12.15625 -11.75 "/></g></g></g><g fill="#000000" fill-opacity="1"><g transform="translate(134.236574, 121.916026)"><g><path d="M 5.15625 0 L 5.15625 -10 L 1.1875 -10 L 1.1875 -11.75 L 11.015625 -11.75 L 11.015625 -10 L 6.96875 -10 L 6.96875 0 Z M 5.15625 0 "/></g></g></g><g fill="#000000" fill-opacity="1"><g transform="translate(146.438125, 121.916026)"><g><path d="M 1.5625 -4 L 1.5625 -5.65625 L 7.0625 -5.65625 L 7.0625 -4 Z M 1.5625 -4 "/></g></g></g><g fill="#000000" fill-opacity="1"><g transform="translate(155.064805, 121.916026)"><g><path d="M 2.4375 -11.75 L 11.140625 -11.75 L 11.140625 -10 L 4.25 -10 L 4.25 -6.890625 L 10.21875 -6.890625 L 10.21875 -5.15625 L 4.25 -5.15625 L 4.25 -1.75 L 11.140625 -1.75 L 11.140625 0 L 2.4375 0 Z M 2.4375 -11.75 "/></g></g></g><g fill="#000000" fill-opacity="1"><g transform="translate(168.273359, 121.916026)"><g><path d="M 12.15625 -11.75 L 13.96875 -11.75 L 13.96875 0 L 12.203125 0 L 3.9375 -9.125 C 4.007812 -8.414062 4.078125 -7.707031 4.140625 -7 C 4.210938 -6.289062 4.25 -5.585938 4.25 -4.890625 L 4.25 0 L 2.4375 0 L 2.4375 -11.75 L 4.15625 -11.75 L 12.421875 -2.40625 C 12.347656 -2.945312 12.289062 -3.535156 12.25 -4.171875 C 12.207031 -4.804688 12.179688 -5.441406 12.171875 -6.078125 C 12.160156 -6.710938 12.15625 -7.316406 12.15625 -7.890625 Z M 12.15625 -11.75 "/></g></g></g><g fill="#000000" fill-opacity="1"><g transform="translate(184.670763, 121.916026)"><g><path d="M 7.78125 -11.75 C 8.789062 -11.75 9.675781 -11.59375 10.4375 -11.28125 C 11.195312 -10.976562 11.832031 -10.554688 12.34375 -10.015625 C 12.863281 -9.472656 13.25 -8.84375 13.5 -8.125 C 13.757812 -7.414062 13.890625 -6.664062 13.890625 -5.875 C 13.890625 -4.800781 13.660156 -3.816406 13.203125 -2.921875 C 12.742188 -2.035156 12.0625 -1.328125 11.15625 -0.796875 C 10.25 -0.265625 9.125 0 7.78125 0 L 2.4375 0 L 2.4375 -11.75 Z M 7.703125 -1.75 C 8.710938 -1.75 9.53125 -1.9375 10.15625 -2.3125 C 10.789062 -2.6875 11.253906 -3.179688 11.546875 -3.796875 C 11.847656 -4.421875 12 -5.113281 12 -5.875 C 12 -6.613281 11.847656 -7.296875 11.546875 -7.921875 C 11.253906 -8.546875 10.789062 -9.046875 10.15625 -9.421875 C 9.53125 -9.804688 8.710938 -10 7.703125 -10 L 4.25 -10 L 4.25 -1.75 Z M 7.703125 -1.75 "/></g></g></g><g fill="#000000" fill-opacity="1"><g transform="translate(200.128299, 121.916026)"><g/></g></g><g fill="#000000" fill-opacity="1"><g transform="translate(206.757749, 121.916026)"><g><path d="M 7.78125 -11.75 C 8.789062 -11.75 9.675781 -11.59375 10.4375 -11.28125 C 11.195312 -10.976562 11.832031 -10.554688 12.34375 -10.015625 C 12.863281 -9.472656 13.25 -8.84375 13.5 -8.125 C 13.757812 -7.414062 13.890625 -6.664062 13.890625 -5.875 C 13.890625 -4.800781 13.660156 -3.816406 13.203125 -2.921875 C 12.742188 -2.035156 12.0625 -1.328125 11.15625 -0.796875 C 10.25 -0.265625 9.125 0 7.78125 0 L 2.4375 0 L 2.4375 -11.75 Z M 7.703125 -1.75 C 8.710938 -1.75 9.53125 -1.9375 10.15625 -2.3125 C 10.789062 -2.6875 11.253906 -3.179688 11.546875 -3.796875 C 11.847656 -4.421875 12 -5.113281 12 -5.875 C 12 -6.613281 11.847656 -7.296875 11.546875 -7.921875 C 11.253906 -8.546875 10.789062 -9.046875 10.15625 -9.421875 C 9.53125 -9.804688 8.710938 -10 7.703125 -10 L 4.25 -10 L 4.25 -1.75 Z M 7.703125 -1.75 "/></g></g></g><g fill="#000000" fill-opacity="1"><g transform="translate(222.215285, 121.916026)"><g><path d="M 2.4375 -11.75 L 11.140625 -11.75 L 11.140625 -10 L 4.25 -10 L 4.25 -6.890625 L 10.21875 -6.890625 L 10.21875 -5.15625 L 4.25 -5.15625 L 4.25 -1.75 L 11.140625 -1.75 L 11.140625 0 L 2.4375 0 Z M 2.4375 -11.75 "/></g></g></g><g fill="#000000" fill-opacity="1"><g transform="translate(235.423839, 121.916026)"><g><path d="M 13.1875 -11.75 L 8.140625 0 L 6.140625 0 L 1.046875 -11.75 L 3.109375 -11.75 L 6.09375 -4.6875 C 6.257812 -4.269531 6.445312 -3.828125 6.65625 -3.359375 C 6.863281 -2.890625 7.054688 -2.4375 7.234375 -2 C 7.390625 -2.4375 7.5625 -2.882812 7.75 -3.34375 C 7.9375 -3.8125 8.117188 -4.253906 8.296875 -4.671875 L 11.0625 -11.75 Z M 13.1875 -11.75 "/></g></g></g><g fill="#000000" fill-opacity="1"><g transform="translate(249.656187, 121.916026)"><g><path d="M 2.4375 -11.75 L 11.140625 -11.75 L 11.140625 -10 L 4.25 -10 L 4.25 -6.890625 L 10.21875 -6.890625 L 10.21875 -5.15625 L 4.25 -5.15625 L 4.25 -1.75 L 11.140625 -1.75 L 11.140625 0 L 2.4375 0 Z M 2.4375 -11.75 "/></g></g></g><g fill="#000000" fill-opacity="1"><g transform="translate(262.864753, 121.916026)"><g><path d="M 11.0625 -1.75 L 11.0625 0 L 2.4375 0 L 2.4375 -11.75 L 4.25 -11.75 L 4.25 -1.75 Z M 11.0625 -1.75 "/></g></g></g><g fill="#000000" fill-opacity="1"><g transform="translate(275.720865, 121.916026)"><g><path d="M 14.5625 -5.875 C 14.5625 -5.019531 14.398438 -4.226562 14.078125 -3.5 C 13.765625 -2.769531 13.316406 -2.128906 12.734375 -1.578125 C 12.148438 -1.023438 11.460938 -0.59375 10.671875 -0.28125 C 9.878906 0.0195312 9.015625 0.171875 8.078125 0.171875 C 7.109375 0.171875 6.226562 0.0195312 5.4375 -0.28125 C 4.644531 -0.59375 3.957031 -1.023438 3.375 -1.578125 C 2.800781 -2.128906 2.351562 -2.769531 2.03125 -3.5 C 1.71875 -4.226562 1.5625 -5.019531 1.5625 -5.875 C 1.5625 -6.726562 1.71875 -7.519531 2.03125 -8.25 C 2.351562 -8.976562 2.800781 -9.613281 3.375 -10.15625 C 3.957031 -10.707031 4.644531 -11.140625 5.4375 -11.453125 C 6.226562 -11.765625 7.109375 -11.921875 8.078125 -11.921875 C 9.015625 -11.921875 9.878906 -11.765625 10.671875 -11.453125 C 11.460938 -11.140625 12.148438 -10.707031 12.734375 -10.15625 C 13.316406 -9.613281 13.765625 -8.976562 14.078125 -8.25 C 14.398438 -7.519531 14.5625 -6.726562 14.5625 -5.875 Z M 12.71875 -5.875 C 12.71875 -6.6875 12.519531 -7.414062 12.125 -8.0625 C 11.726562 -8.707031 11.179688 -9.21875 10.484375 -9.59375 C 9.785156 -9.96875 8.984375 -10.15625 8.078125 -10.15625 C 7.140625 -10.15625 6.320312 -9.96875 5.625 -9.59375 C 4.925781 -9.21875 4.378906 -8.707031 3.984375 -8.0625 C 3.597656 -7.414062 3.40625 -6.6875 3.40625 -5.875 C 3.40625 -5.050781 3.597656 -4.316406 3.984375 -3.671875 C 4.378906 -3.035156 4.925781 -2.53125 5.625 -2.15625 C 6.320312 -1.78125 7.140625 -1.59375 8.078125 -1.59375 C 8.984375 -1.59375 9.785156 -1.78125 10.484375 -2.15625 C 11.179688 -2.53125 11.726562 -3.039062 12.125 -3.6875 C 12.519531 -4.34375 12.71875 -5.070312 12.71875 -5.875 Z M 12.71875 -5.875 "/></g></g></g><g fill="#000000" fill-opacity="1"><g transform="translate(291.849729, 121.916026)"><g><path d="M 8.375 -11.75 C 9.039062 -11.75 9.648438 -11.585938 10.203125 -11.265625 C 10.765625 -10.953125 11.207031 -10.519531 11.53125 -9.96875 C 11.863281 -9.425781 12.03125 -8.816406 12.03125 -8.140625 C 12.03125 -7.441406 11.851562 -6.8125 11.5 -6.25 C 11.15625 -5.6875 10.691406 -5.234375 10.109375 -4.890625 C 9.523438 -4.554688 8.882812 -4.390625 8.1875 -4.390625 L 4.25 -4.390625 L 4.25 0 L 2.4375 0 L 2.4375 -11.75 Z M 8.09375 -6.140625 C 8.457031 -6.140625 8.796875 -6.234375 9.109375 -6.421875 C 9.421875 -6.609375 9.671875 -6.851562 9.859375 -7.15625 C 10.046875 -7.457031 10.140625 -7.785156 10.140625 -8.140625 C 10.140625 -8.484375 10.046875 -8.796875 9.859375 -9.078125 C 9.671875 -9.359375 9.421875 -9.582031 9.109375 -9.75 C 8.796875 -9.914062 8.457031 -10 8.09375 -10 L 4.25 -10 L 4.25 -6.140625 Z M 8.09375 -6.140625 "/></g></g></g><g fill="#000000" fill-opacity="1"><g transform="translate(305.494661, 121.916026)"><g><path d="M 2.4375 -11.75 L 11.140625 -11.75 L 11.140625 -10 L 4.25 -10 L 4.25 -6.890625 L 10.21875 -6.890625 L 10.21875 -5.15625 L 4.25 -5.15625 L 4.25 -1.75 L 11.140625 -1.75 L 11.140625 0 L 2.4375 0 Z M 2.4375 -11.75 "/></g></g></g><g fill="#000000" fill-opacity="1"><g transform="translate(318.703227, 121.916026)"><g><path d="M 12.25 -8.078125 C 12.25 -7.296875 12.007812 -6.585938 11.53125 -5.953125 C 11.050781 -5.328125 10.441406 -4.878906 9.703125 -4.609375 L 12.84375 0.015625 L 10.609375 0 L 7.671875 -4.359375 L 4.25 -4.359375 L 4.25 0 L 2.4375 0 L 2.4375 -11.75 L 8.46875 -11.75 C 9.132812 -11.75 9.75 -11.59375 10.3125 -11.28125 C 10.882812 -10.96875 11.347656 -10.535156 11.703125 -9.984375 C 12.066406 -9.429688 12.25 -8.796875 12.25 -8.078125 Z M 8.0625 -10 L 4.25 -10 L 4.25 -6.109375 L 8.265625 -6.109375 C 8.660156 -6.109375 9.015625 -6.195312 9.328125 -6.375 C 9.640625 -6.5625 9.890625 -6.804688 10.078125 -7.109375 C 10.265625 -7.410156 10.359375 -7.738281 10.359375 -8.09375 C 10.359375 -8.457031 10.25 -8.785156 10.03125 -9.078125 C 9.820312 -9.367188 9.539062 -9.59375 9.1875 -9.75 C 8.84375 -9.914062 8.46875 -10 8.0625 -10 Z M 8.0625 -10 "/></g></g></g><g fill="#000000" fill-opacity="1"><g transform="translate(333.338363, 121.916026)"><g><path d="M 9.84375 -3.546875 L 2.5625 -0.0625 L 1.765625 -1.421875 L 7.640625 -4.234375 L 1.765625 -7.015625 L 2.5625 -8.375 L 9.84375 -4.90625 Z M 9.84375 -3.546875 "/></g></g></g></svg>